# xmcd
#
# Track frame offsets:
# 150
# 20574
# 36978
# 60180
# 85945
# 105115
# 125010
# 138964
# 153377
# 172118
# 190621
# 209095
# 228740
# 244354
# 264687
# 285564
# 305385
#
# Disc length: 4292 seconds
#
#
# Revision: 0
# Processed by: cddbd v1.5.2PL0 Copyright (c) Steve Scherf et al.
# Submitted via: FreeRIP 2.943 
#
DISCID=f010c211
DTITLE=Roberto Carlos - Roberto Carlos
DYEAR=1900
DGENRE=Musica brasilera
TTITLE0=El dia que me quieras
TTITLE1=Desahogo
TTITLE2=Detalles
TTITLE3=Desde el fondo de mi corazon
TTITLE4=No te apartes de mi
TTITLE5=La distancia
TTITLE6=Concavo y convexo
TTITLE7=Cama y mesa
TTITLE8=Un gato en la oscuridad
TTITLE9=Que sera de mi
TTITLE10=Lady Laura
TTITLE11=Amada amante
TTITLE12=Amigo
TTITLE13=Si el amor se va
TTITLE14=Yo te recuerdo
TTITLE15=Propuesta
TTITLE16=Eu daria minha vida
EXTD=
EXTT0=
EXTT1=
EXTT2=
EXTT3=
EXTT4=
EXTT5=
EXTT6=
EXTT7=
EXTT8=
EXTT9=
EXTT10=
EXTT11=
EXTT12=
EXTT13=
EXTT14=
EXTT15=
EXTT16=
PLAYORDER=
